<?xml version="1.0" encoding="UTF-8" standalone="no"?>
<!-- Created with Inkscape (http://www.inkscape.org/) -->

<svg
   id="svg2"
   sodipodi:version="0.32"
   inkscape:version="1.1.1 (3bf5ae0d25, 2021-09-20)"
   width="1345"
   height="1261"
   version="1.0"
   sodipodi:docname="area_rule_teaser.svg"
   xmlns:inkscape="http://www.inkscape.org/namespaces/inkscape"
   xmlns:sodipodi="http://sodipodi.sourceforge.net/DTD/sodipodi-0.dtd"
   xmlns="http://www.w3.org/2000/svg"
   xmlns:svg="http://www.w3.org/2000/svg"
   xmlns:rdf="http://www.w3.org/1999/02/22-rdf-syntax-ns#"
   xmlns:cc="http://creativecommons.org/ns#"
   xmlns:dc="http://purl.org/dc/elements/1.1/">
  <metadata
     id="metadata7">
    <rdf:RDF>
      <cc:Work
         rdf:about="">
        <dc:format>image/svg+xml</dc:format>
        <dc:type
           rdf:resource="http://purl.org/dc/dcmitype/StillImage" />
      </cc:Work>
    </rdf:RDF>
  </metadata>
  <defs
     id="defs5" />
  <sodipodi:namedview
     inkscape:window-height="1017"
     inkscape:window-width="1920"
     inkscape:pageshadow="2"
     inkscape:pageopacity="0"
     guidetolerance="10.0"
     gridtolerance="10.0"
     objecttolerance="10.0"
     borderopacity="1.0"
     bordercolor="#666666"
     pagecolor="#000000"
     id="base"
     showgrid="true"
     inkscape:grid-points="false"
     inkscape:grid-bbox="false"
     inkscape:object-points="false"
     inkscape:object-nodes="false"
     inkscape:object-paths="false"
     inkscape:object-bbox="false"
     inkscape:zoom="0.5"
     inkscape:cx="617"
     inkscape:cy="521"
     inkscape:window-x="-8"
     inkscape:window-y="-8"
     inkscape:current-layer="layer2"
     inkscape:pagecheckerboard="0"
     inkscape:window-maximized="1" />
  <g
     inkscape:groupmode="layer"
     id="layer2"
     inkscape:label="a"
     style="display:inline">
    <path
       style="fill:#000000;fill-rule:evenodd;stroke:#ffffff;stroke-width:4.0999999;stroke-linecap:butt;stroke-linejoin:miter;stroke-miterlimit:4;stroke-dasharray:none;stroke-opacity:1;fill-opacity:1"
       d="M 680.5,361.5 L 496.5,244.5 C 492.89622,239.25 505.91667,219 520,196.5 L 725.5,275 L 680.5,361.5 z "
       id="path1899"
       sodipodi:nodetypes="ccccc" />
    <path
       style="fill:#000000;fill-rule:evenodd;stroke:#ffffff;stroke-width:4.0999999;stroke-linecap:butt;stroke-linejoin:miter;stroke-miterlimit:4;stroke-dasharray:none;stroke-opacity:1;fill-opacity:1"
       d="M 495,766 L 27,462 C 24.070689,451.05152 44.101002,412.39858 71,364 L 645,437 C 593.72233,577.7592 505.12016,747.42146 495,766 z "
       id="path1891"
       sodipodi:nodetypes="ccccc" />
    <path
       style="fill:#000000;fill-rule:evenodd;stroke:#ffffff;stroke-width:4.0999999;stroke-linecap:butt;stroke-linejoin:miter;stroke-miterlimit:4;stroke-dasharray:none;stroke-opacity:1;fill-opacity:1"
       d="M 353.47875,1242 C 384.78098,1260.4255 479.52251,1149.1469 536.25099,1026.3127 C 536.25099,1026.3127 710.96003,597.0953 781.45949,461.6255 C 820.96974,385.7037 865.62997,271.35017 860,252.86855 C 846.35808,208.08596 787.11026,185.29335 755.99434,211.31275 C 733.59935,230.03962 665.9482,360.86424 640,440.3745 C 631.80469,465.4865 390.93824,971.83399 390.93824,971.83399 C 347.04602,1072.5254 322.09907,1223.5289 353.47875,1242 z "
       id="path1885"
       sodipodi:nodetypes="ccsssscz" />
    <path
       style="fill:#000000;fill-rule:evenodd;stroke:#ffffff;stroke-width:4.0999999;stroke-linecap:butt;stroke-linejoin:miter;stroke-miterlimit:4;stroke-dasharray:none;stroke-opacity:1"
       d="M 628.25,791 L 1280,691 C 1290.1242,689.35963 1290.0876,668.69425 1322.1944,590.9895 L 779.05531,461.61607 C 690.63555,630.42886 622.10177,777.20536 628.25,791 z "
       id="path1895"
       sodipodi:nodetypes="ccccc" />
    <path
       style="fill:#000000;fill-rule:evenodd;stroke:#ffffff;stroke-width:4.0999999;stroke-linecap:butt;stroke-linejoin:miter;stroke-miterlimit:4;stroke-dasharray:none;stroke-opacity:1"
       d="M 810,381.25 L 1060.25,348.5 C 1065.8897,347.54871 1067.1753,334.14537 1080.5,299.375 L 848.25,292.75 C 819.25,350 804.77442,375.22126 810,381.25 z "
       id="path1897"
       sodipodi:nodetypes="ccccc" />
    <path
       style="fill:#000000;fill-rule:evenodd;stroke:#ffffff;stroke-width:4.0999999;stroke-linecap:butt;stroke-linejoin:miter;stroke-miterlimit:4;stroke-dasharray:none;stroke-opacity:1;fill-opacity:1"
       d="M 749.5,309.5 C 759.24811,307.66478 775.08392,268.16726 791.25,225.75 L 813.25,10.000004 C 794.16667,41.750004 791.58626,44.438593 789.75,57.250004 L 749.5,309.5 z "
       id="path1901"
       sodipodi:nodetypes="ccccc" />
    <path
       style="fill:none;fill-rule:evenodd;stroke:#ffffff;stroke-width:4.0999999;stroke-linecap:butt;stroke-linejoin:miter;stroke-miterlimit:4;stroke-dasharray:none;stroke-opacity:1"
       d="M 1280,691 C 1272.3217,683.16458 1304.5941,625.91732 1322.1944,590.9895"
       id="path1905"
       sodipodi:nodetypes="cc" />
    <path
       style="fill:none;fill-rule:evenodd;stroke:#ffffff;stroke-width:4.0999999;stroke-linecap:butt;stroke-linejoin:miter;stroke-miterlimit:4;stroke-dasharray:none;stroke-opacity:1"
       d="M 1060.25,348.5 C 1057.2771,343.36594 1068.0931,325.29594 1080.5,299.375"
       id="path1907"
       sodipodi:nodetypes="cc" />
    <path
       style="fill:none;fill-rule:evenodd;stroke:#ffffff;stroke-width:4.0999999;stroke-linecap:butt;stroke-linejoin:miter;stroke-miterlimit:4;stroke-dasharray:none;stroke-opacity:1"
       d="M 789.75,57.250004 C 800.2259,50.892575 801.92134,42.254682 813.25,10.000004"
       id="path1909"
       sodipodi:nodetypes="cc" />
  </g>
  <g
     inkscape:groupmode="layer"
     id="layer4"
     inkscape:label="a#1"
     style="display:inline">
    <path
       sodipodi:type="arc"
       style="opacity:1;fill:#70dbdb;fill-opacity:1;stroke:none;stroke-width:4.0999999;stroke-linecap:round;stroke-miterlimit:4;stroke-dasharray:none;stroke-opacity:1;display:inline"
       id="path2799"
       sodipodi:cx="486.18143"
       sodipodi:cy="965.05115"
       sodipodi:rx="73.849449"
       sodipodi:ry="59.355614"
       d="M 560.03088 965.05115 A 73.849449 59.355614 0 1 1  412.33198,965.05115 A 73.849449 59.355614 0 1 1  560.03088 965.05115 z"
       transform="matrix(0.902312,0.431084,-0.431084,0.902312,460.3726,-124.2797)" />
    <path
       transform="matrix(0.789814,0.377338,-0.377338,0.789814,664.0999,-442.102)"
       id="path2847"
       style="opacity:1;fill:#7093db;fill-opacity:1;stroke:none;stroke-width:4.0999999;stroke-linecap:round;stroke-miterlimit:4;stroke-dasharray:none;stroke-opacity:1;display:inline"
       d="M 560.03088 965.05115 A 73.849449 59.355614 0 1 1  412.33198,965.05115 A 73.849449 59.355614 0 1 1  560.03088 965.05115 z"
       sodipodi:type="arc"
       sodipodi:ry="59.355614"
       sodipodi:rx="73.849449"
       sodipodi:cy="965.05115"
       sodipodi:cx="486.18143" />
    <path
       style="fill:#7093db;fill-opacity:1;fill-rule:evenodd;stroke:none;stroke-width:1px;stroke-linecap:butt;stroke-linejoin:miter;stroke-opacity:1;display:inline"
       d="M 57.257995,393.36235 L 707.28882,518.18978 L 1303.672,622.41374 L 1308.3334,613.41106 L 712.25,499.5 L 60.76956,386.85922 L 57.257995,393.36235 z "
       id="path2805"
       sodipodi:nodetypes="ccccccc" />
    <path
       style="fill:none;fill-rule:evenodd;stroke:#ffffff;stroke-width:4.0999999;stroke-linecap:butt;stroke-linejoin:miter;stroke-miterlimit:4;stroke-dasharray:none;stroke-opacity:1;display:inline"
       d="M 729.03617,558.95795 C 741.92507,533.70001 754.67525,508.38346 767.78752,483.21623"
       id="path2841"
       sodipodi:nodetypes="cc" />
    <path
       style="fill:none;fill-rule:evenodd;stroke:#ffffff;stroke-width:4.0999999;stroke-linecap:butt;stroke-linejoin:miter;stroke-miterlimit:4;stroke-dasharray:none;stroke-opacity:1;display:inline"
       d="M 609.95018,507.45293 L 629.54113,464.67989"
       id="path2844"
       sodipodi:nodetypes="cc" />
  </g>
</svg>
